<svg width="80" height="22" viewBox="0 0 80 22" fill="none" xmlns="http://www.w3.org/2000/svg">
<path d="M69.4455 21.2031C67.5315 21.2031 65.7722 20.7584 64.1675 19.8691C62.5628 18.9604 61.2868 17.7134 60.3395 16.1281C59.4115 14.5234 58.9475 12.7158 58.9475 10.7051C58.9475 8.69442 59.4115 6.89642 60.3395 5.31108C61.2868 3.70642 62.5628 2.45942 64.1675 1.57008C65.7722 0.680751 67.5315 0.236084 69.4455 0.236084C71.3788 0.236084 73.1382 0.680751 74.7235 1.57008C76.3282 2.45942 77.5945 3.70642 78.5225 5.31108C79.4505 6.89642 79.9145 8.69442 79.9145 10.7051C79.9145 12.7158 79.4505 14.5234 78.5225 16.1281C77.5945 17.7134 76.3282 18.9604 74.7235 19.8691C73.1188 20.7584 71.3595 21.2031 69.4455 21.2031ZM69.4455 15.9251C70.8955 15.9251 72.0362 15.4514 72.8675 14.5041C73.7182 13.5568 74.1435 12.2904 74.1435 10.7051C74.1435 9.08109 73.7182 7.80508 72.8675 6.87708C72.0362 5.92975 70.8955 5.45608 69.4455 5.45608C67.9762 5.45608 66.8258 5.92975 65.9945 6.87708C65.1632 7.80508 64.7475 9.08109 64.7475 10.7051C64.7475 12.3098 65.1632 13.5858 65.9945 14.5331C66.8258 15.4611 67.9762 15.9251 69.4455 15.9251Z" fill="white"/>
<path d="M50.7453 7.28305C50.4166 6.74172 49.9623 6.32605 49.3823 6.03605C48.8216 5.74605 48.1546 5.60105 47.3813 5.60105C45.9506 5.60105 44.8196 6.06505 43.9883 6.99305C43.1763 7.92105 42.7703 9.16805 42.7703 10.7341C42.7703 12.4934 43.2053 13.8371 44.0753 14.7651C44.9646 15.6737 46.2503 16.1281 47.9323 16.1281C49.9236 16.1281 51.3446 15.2291 52.1953 13.4311H46.4823V9.34205H57.0963V14.8521C56.6516 15.9347 55.9943 16.9497 55.1243 17.8971C54.2736 18.8444 53.1909 19.6274 51.8763 20.246C50.5616 20.8454 49.0633 21.1451 47.3813 21.1451C45.3319 21.1451 43.5146 20.7101 41.9293 19.8401C40.3633 18.9507 39.1453 17.7231 38.2753 16.1571C37.4246 14.5717 36.9993 12.7641 36.9993 10.7341C36.9993 8.72338 37.4246 6.93505 38.2753 5.36905C39.1453 3.78372 40.3633 2.55605 41.9293 1.68605C43.4953 0.796718 45.3029 0.352051 47.3523 0.352051C49.9236 0.352051 52.0503 0.970718 53.7323 2.20805C55.4143 3.44538 56.4583 5.13705 56.8643 7.28305H50.7453Z" fill="white"/>
<path d="M24.6711 21.2031C22.7571 21.2031 20.9978 20.7584 19.3931 19.8691C17.7884 18.9604 16.5124 17.7134 15.5651 16.1281C14.6371 14.5234 14.1731 12.7158 14.1731 10.7051C14.1731 8.69442 14.6371 6.89642 15.5651 5.31108C16.5124 3.70642 17.7884 2.45942 19.3931 1.57008C20.9978 0.680751 22.7571 0.236084 24.6711 0.236084C26.6044 0.236084 28.3638 0.680751 29.9491 1.57008C31.5538 2.45942 32.8201 3.70642 33.7481 5.31108C34.6761 6.89642 35.1401 8.69442 35.1401 10.7051C35.1401 12.7158 34.6761 14.5234 33.7481 16.1281C32.8201 17.7134 31.5538 18.9604 29.9491 19.8691C28.3444 20.7584 26.5851 21.2031 24.6711 21.2031ZM24.6711 15.9251C26.1211 15.9251 27.2618 15.4514 28.0931 14.5041C28.9438 13.5568 29.3691 12.2904 29.3691 10.7051C29.3691 9.08109 28.9438 7.80508 28.0931 6.87708C27.2618 5.92975 26.1211 5.45608 24.6711 5.45608C23.2018 5.45608 22.0514 5.92975 21.2201 6.87708C20.3888 7.80508 19.9731 9.08109 19.9731 10.7051C19.9731 12.3098 20.3888 13.5858 21.2201 14.5331C22.0514 15.4611 23.2018 15.9251 24.6711 15.9251Z" fill="white"/>
<path d="M6.30802 16.6499H12.659V20.9999H0.624023V0.554932H6.30802V16.6499Z" fill="white"/>
</svg>
